<?xml version="1.0" encoding="utf-8"?>
<!-- Svg Vector Icons : http://www.onlinewebfonts.com/icon -->
<!DOCTYPE svg PUBLIC "-//W3C//DTD SVG 1.1//EN" "http://www.w3.org/Graphics/SVG/1.1/DTD/svg11.dtd">
<svg version="1.1" xmlns="http://www.w3.org/2000/svg" xmlns:xlink="http://www.w3.org/1999/xlink" width="18px" height="18px" x="0px" y="0px" viewBox="0 0 1000 1000" enable-background="new 0 0 1000 1000" xml:space="preserve">
<metadata> Svg Vector Icons : http://www.onlinewebfonts.com/icon </metadata>
<g><g><g><path d="M232.7,382.5C335.5,382.5,419,299,419,196.3C419,93.5,335.5,10,232.7,10S46.4,93.6,46.4,196.3C46.4,299,130,382.5,232.7,382.5z"/><path d="M232.7,990C335.5,990,419,906.4,419,803.7c0-102.7-83.6-186.3-186.3-186.3S46.4,701,46.4,803.7C46.4,906.5,130,990,232.7,990z"/><path d="M767.3,10C664.5,10,581,93.6,581,196.3c0,102.7,83.6,186.3,186.3,186.3c102.7,0,186.3-83.6,186.3-186.3C953.6,93.6,870,10,767.3,10z"/><path d="M953.6,803.7c0-102.7-83.5-186.3-186.3-186.3C664.5,617.4,581,701,581,803.7C581,906.5,664.5,990,767.3,990C870,990,953.6,906.4,953.6,803.7z"/></g></g><g></g><g></g><g></g><g></g><g></g><g></g><g></g><g></g><g></g><g></g><g></g><g></g><g></g><g></g><g></g></g>
</svg>