<?xml version="1.0"?>
<svg xmlns="http://www.w3.org/2000/svg" xmlns:xlink="http://www.w3.org/1999/xlink" version="1.1" id="Capa_1" x="0px" y="0px" width="20px" height="20px" viewBox="0 0 385.774 385.774" style="enable-background:new 0 0 385.774 385.774;" xml:space="preserve" class=""><g transform="matrix(-1 1.22465e-16 -1.22465e-16 -1 385.774 385.774)"><g>
	<path d="M0,120.308V265.48c0,25.223,17.733,35.49,39.613,22.955l126.989-72.831c21.877-12.544,21.877-32.877,0-45.417   L39.613,97.361C17.733,84.816,0,95.093,0,120.308z" data-original="#000000" class="active-path" fill="#000000"/>
	<path d="M195.555,123.654v138.485c0,25.207,13.846,45.645,30.941,45.645c17.079,0,30.917-20.446,30.917-45.645V123.654   c0-25.208-13.85-45.663-30.917-45.663C209.392,77.991,195.555,98.445,195.555,123.654z" data-original="#000000" class="active-path" fill="#000000"/>
	
</g></g> </svg>
