<?xml version="1.0" encoding="iso-8859-1"?>
<!-- Generator: Adobe Illustrator 16.0.0, SVG Export Plug-In . SVG Version: 6.00 Build 0)  -->
<!DOCTYPE svg PUBLIC "-//W3C//DTD SVG 1.1//EN" "http://www.w3.org/Graphics/SVG/1.1/DTD/svg11.dtd">
<svg version="1.1" id="Capa_1" xmlns="http://www.w3.org/2000/svg" xmlns:xlink="http://www.w3.org/1999/xlink" x="0px" y="0px"
	 fill="#fff" width="20px" height="20px" viewBox="0 0 385.774 385.774" style="enable-background: new 0 0 385.774 385.774"
	 xml:space="preserve">
<g>
	
	<path d="M 96.6 129.7 v 138.5 c 0 25.2 13.8 45.6 30.9 45.6 c 17.1 0 30.9 -20.4 30.9 -45.6 V 129.7 c 0 -25.2 -13.8 -45.7 -30.9 -45.7 C 110.4 84 96.6 104.4 96.6 129.7 z"/>
	<path d="M 224.9 129.7 v 138.5 c 0 25.2 13.9 45.6 30.9 45.6 c 17.1 0 30.9 -20.4 30.9 -45.6 V 129.7 c 0 -25.2 -13.9 -45.7 -30.9 -45.7 C 238.8 84 224.9 104.4 224.9 129.7 z"/>
</g>
<g>
</g>
<g>
</g>
<g>
</g>
<g>
</g>
<g>
</g>
<g>
</g>
<g>
</g>
<g>
</g>
<g>
</g>
<g>
</g>
<g>
</g>
<g>
</g>
<g>
</g>
<g>
</g>
<g>
</g>
</svg>
